<?xml version="1.0" encoding="UTF-8" standalone="no"?>
<!-- Created with Inkscape (http://www.inkscape.org/) -->

<svg
   width="360.435"
   height="360.435"
   viewBox="0 0 95.365092 95.365093"
   version="1.1"
   id="svg1"
   inkscape:version="1.4 (e7c3feb1, 2024-10-09)"
   sodipodi:docname="icon.svg"
   inkscape:export-filename="icon-192.png"
   inkscape:export-xdpi="51.138206"
   inkscape:export-ydpi="51.138206"
   xmlns:inkscape="http://www.inkscape.org/namespaces/inkscape"
   xmlns:sodipodi="http://sodipodi.sourceforge.net/DTD/sodipodi-0.dtd"
   xmlns="http://www.w3.org/2000/svg"
   xmlns:svg="http://www.w3.org/2000/svg">
  <sodipodi:namedview
     id="namedview1"
     pagecolor="#ffffff"
     bordercolor="#000000"
     borderopacity="0.25"
     inkscape:showpageshadow="2"
     inkscape:pageopacity="0.0"
     inkscape:pagecheckerboard="0"
     inkscape:deskcolor="#d1d1d1"
     inkscape:document-units="mm"
     inkscape:zoom="0.66369811"
     inkscape:cx="148.41085"
     inkscape:cy="243.33352"
     inkscape:window-width="1512"
     inkscape:window-height="838"
     inkscape:window-x="0"
     inkscape:window-y="38"
     inkscape:window-maximized="1"
     inkscape:current-layer="layer1"
     showgrid="true">
    <inkscape:grid
       type="axonomgrid"
       id="grid3"
       units="mm"
       originx="0"
       originy="0"
       spacingx="0.99999999"
       spacingy="1"
       empcolor="#0099e5"
       empopacity="0.30196078"
       color="#0099e5"
       opacity="0.14901961"
       empspacing="5"
       dotted="false"
       gridanglex="30"
       gridanglez="30"
       enabled="true"
       visible="true" />
  </sodipodi:namedview>
  <defs
     id="defs1" />
  <g
     inkscape:label="Calque 1"
     inkscape:groupmode="layer"
     id="layer1"
     transform="translate(441.58959,4279.9)">
    <g
       id="g20-9-7-9"
       transform="matrix(3.5268019,0,0,3.5268019,-750.36384,-3481.5806)">
      <path
         id="path16-2-5-5-1-6-1"
         style="fill:#edce03;fill-opacity:1;stroke:none;stroke-width:9.36869;stroke-dasharray:none;stroke-opacity:1;paint-order:stroke markers fill"
         d="m 20.520702,-227.33172 -21.14217882,0.4102 a 34.981724,21.799484 90 0 0 21.77920082,34.50236 34.981724,21.799484 90 0 0 0.574492,-0.021 z"
         transform="matrix(1,0,-0.35196468,0.93601328,0,0)" />
      <path
         id="path20-4-2-7"
         style="fill:#04ac06;fill-opacity:1;stroke:none;stroke-width:9.36869;stroke-dasharray:none;stroke-opacity:1;paint-order:stroke markers fill"
         d="m 20.520702,-227.33172 1.211514,34.89158 a 34.981724,21.799484 90 0 0 21.225358,-34.9606 34.981724,21.799484 90 0 0 -0.01495,-0.36548 z"
         transform="matrix(1,0,-0.35196468,0.93601328,0,0)" />
      <path
         id="path19-8-7-5"
         style="fill:#fa050e;fill-opacity:1;stroke:none;stroke-width:9.36869;stroke-dasharray:none;stroke-opacity:1;paint-order:stroke markers fill"
         d="m 19.310255,-262.18798 a 34.981724,21.799484 90 0 0 -19.95157038,34.78724 34.981724,21.799484 90 0 0 0.0198386,0.47922 l 21.14217878,-0.4102 z"
         transform="matrix(1,0,-0.35196468,0.93601328,0,0)" />
      <path
         id="path18-8-0-5"
         style="fill:#00adcf;fill-opacity:1;stroke:none;stroke-width:9.36869;stroke-dasharray:none;stroke-opacity:1;paint-order:stroke markers fill"
         d="m 19.310255,-262.18798 1.210447,34.85626 22.421922,-0.4345 a 34.981724,21.799484 90 0 0 -21.784606,-34.61609 34.981724,21.799484 90 0 0 -1.847763,0.19433 z"
         transform="matrix(1,0,-0.35196468,0.93601328,0,0)" />
    </g>
    <g
       id="g7"
       transform="matrix(0.86243843,0,0,0.86243843,-40.942985,-582.26943)">
      <g
         id="g16"
         transform="translate(-484.07408,-4293.497)">
        <rect
           style="opacity:1;fill:#ffffff;stroke:#000000;stroke-width:0.664;stroke-dasharray:none"
           id="rect4"
           width="65.736145"
           height="94.701134"
           x="42.81649"
           y="13.929028"
           ry="4.5179977" />
        <rect
           style="display:inline;opacity:1;fill:#000000;fill-opacity:1;stroke:none;stroke-width:1.76578;stroke-dasharray:none"
           id="rect8"
           width="54.503326"
           height="83.870323"
           x="48.680534"
           y="19.393885"
           ry="1.7211421" />
        <path
           id="path16-2-8"
           style="opacity:1;fill:#ffffff;fill-opacity:1;stroke:none;stroke-width:9.064;stroke-dasharray:none;stroke-opacity:1;paint-order:stroke markers fill"
           d="m 86.972656,23.816406 c -6.910186,0.318538 -13.320525,3.685189 -18.557174,8.033587 -11.060431,9.243386 -18.761668,22.301822 -21.913938,36.333294 -1.349788,6.511629 -1.515315,13.498901 0.907776,19.785631 2.007019,4.986366 6.289335,9.276652 11.660807,10.388213 5.63335,1.284397 11.539666,-0.338047 16.470067,-3.124944 7.259938,-4.00827 13.096619,-10.171009 17.849384,-16.885548 5.672008,-8.187421 9.746062,-17.593005 11.181022,-27.48219 0.79122,-6.034195 0.42147,-12.442502 -2.34404,-17.960152 -2.312724,-4.418691 -6.567709,-7.943632 -11.55589,-8.769582 -1.216069,-0.240131 -2.4591,-0.338542 -3.698014,-0.318309 z" />
        <ellipse
           style="opacity:1;fill:#000000;fill-opacity:0.0736434;stroke:none;stroke-width:9.36869;stroke-dasharray:none;stroke-opacity:1;paint-order:stroke markers fill"
           id="path16-2"
           cx="98.286697"
           cy="65.525421"
           rx="21.799484"
           ry="34.981724"
           transform="matrix(1,0,-0.35196468,0.93601328,0,0)" />
      </g>
      <g
         id="g20-9-7"
         transform="translate(-510.04501,-4019.3144)">
        <path
           id="path16-2-5-5-1-6"
           style="fill:#edce03;fill-opacity:1;stroke:none;stroke-width:9.36869;stroke-dasharray:none;stroke-opacity:1;paint-order:stroke markers fill"
           d="m 20.520702,-227.33172 -21.14217882,0.4102 a 34.981724,21.799484 90 0 0 21.77920082,34.50236 34.981724,21.799484 90 0 0 0.574492,-0.021 z"
           transform="matrix(1,0,-0.35196468,0.93601328,0,0)" />
        <path
           id="path20-4-2"
           style="fill:#04ac06;fill-opacity:1;stroke:none;stroke-width:9.36869;stroke-dasharray:none;stroke-opacity:1;paint-order:stroke markers fill"
           d="m 20.520702,-227.33172 1.211514,34.89158 a 34.981724,21.799484 90 0 0 21.225358,-34.9606 34.981724,21.799484 90 0 0 -0.01495,-0.36548 z"
           transform="matrix(1,0,-0.35196468,0.93601328,0,0)" />
        <path
           id="path19-8-7"
           style="fill:#fa050e;fill-opacity:1;stroke:none;stroke-width:9.36869;stroke-dasharray:none;stroke-opacity:1;paint-order:stroke markers fill"
           d="m 19.310255,-262.18798 a 34.981724,21.799484 90 0 0 -19.95157038,34.78724 34.981724,21.799484 90 0 0 0.0198386,0.47922 l 21.14217878,-0.4102 z"
           transform="matrix(1,0,-0.35196468,0.93601328,0,0)" />
        <path
           id="path18-8-0"
           style="fill:#00adcf;fill-opacity:1;stroke:none;stroke-width:9.36869;stroke-dasharray:none;stroke-opacity:1;paint-order:stroke markers fill"
           d="m 19.310255,-262.18798 1.210447,34.85626 22.421922,-0.4345 a 34.981724,21.799484 90 0 0 -21.784606,-34.61609 34.981724,21.799484 90 0 0 -1.847763,0.19433 z"
           transform="matrix(1,0,-0.35196468,0.93601328,0,0)" />
      </g>
    </g>
  </g>
</svg>
